<svg id="Layer_1" data-name="Layer 1" xmlns="http://www.w3.org/2000/svg" viewBox="0 0 24 24"><defs><style>.heart-full{opacity:0;}.heart-box{fill:none;}.heart-border{opacity:0.3;}</style></defs><title>heart</title><path class="heart-full" d="M12,21.35,10.55,20C5.4,15.36,2,12.28,2,8.5A5.45,5.45,0,0,1,7.5,3,6,6,0,0,1,12,5.09,6,6,0,0,1,16.5,3,5.45,5.45,0,0,1,22,8.5c0,3.78-3.4,6.86-8.55,11.54Z"/><path class="heart-box" d="M0,0H24V24H0Z"/><path class="heart-border" d="M16.5,3A6,6,0,0,0,12,5.09,6,6,0,0,0,7.5,3,5.45,5.45,0,0,0,2,8.5C2,12.28,5.4,15.36,10.55,20L12,21.35,13.45,20C18.6,15.36,22,12.28,22,8.5A5.45,5.45,0,0,0,16.5,3ZM12.1,18.55l-.1.1-.1-.1C7.14,14.24,4,11.39,4,8.5A3.42,3.42,0,0,1,7.5,5a3.91,3.91,0,0,1,3.57,2.36h1.87A3.88,3.88,0,0,1,16.5,5,3.42,3.42,0,0,1,20,8.5C20,11.39,16.86,14.24,12.1,18.55Z"/></svg>
